Coordinates
version=1
nRows=8
nColumns=34
inDegrees=yes

Units are S.I. units (second, meters, Newtons, ...)
If the header above contains a line with 'inDegrees', this indicates whether rotational values are in degrees (yes) or radians (no).

endheader
time	pelvis_tilt	pelvis_list	pelvis_rotation	pelvis_tx	pelvis_ty	pelvis_tz	hip_flexion_r	hip_adduction_r	hip_rotation_r	knee_angle_r	ankle_angle_r	subtalar_angle_r	mtp_angle_r	hip_flexion_l	hip_adduction_l	hip_rotation_l	knee_angle_l	ankle_angle_l	subtalar_angle_l	mtp_angle_l	lumbar_extension	lumbar_bending	lumbar_rotation	arm_flex_r	arm_add_r	arm_rot_r	elbow_flex_r	pro_sup_r	arm_flex_l	arm_add_l	arm_rot_l	elbow_flex_l	pro_sup_l
      1.13333330	     -2.13317981	     -0.20082525	     -0.76878908	      1.67614768	      0.85358842	     -0.01994113	     -0.22061998	     -1.86991072	     -4.19926691	      0.99593820	      4.87941673	    -12.48444441	      0.00000000	     -1.33588792	     -4.05380766	     -2.92757922	      1.75314351	      5.95556749	     -2.90310257	      0.00000000	     -2.63319907	      0.43288782	      1.75651037	      5.49313089	    -10.19281870	     29.90361137	     91.32231894	     88.44699116	      8.76912251	     -9.48450887	     28.62783222	     77.44778382	     85.38682017
      1.15000000	     -2.13328520	     -0.20159181	     -0.76891088	      1.67623040	      0.85416494	     -0.01998836	     -0.21858262	     -1.87027304	     -4.19921976	      0.99483560	      4.87924080	    -12.48445776	      0.00000000	     -1.33604039	     -4.05352077	     -2.92749990	      1.75335973	      5.95538670	     -2.90313029	      0.00000000	     -2.63320990	      0.43280912	      1.75661849	      5.49255151	    -10.19227540	     29.90404162	     91.32233953	     88.44673893	      8.76981772	     -9.48445235	     28.62779137	     77.44791046	     85.38660074
      1.16666670	     -2.13045968	     -0.21063728	     -0.76630029	      1.67615113	      0.85456538	     -0.02009145	     -0.20600607	     -1.86762896	     -4.19849026	      0.98815186	      4.87728372	    -12.48360409	      0.00000000	     -1.34499762	     -4.04231188	     -2.92711215	      1.75847953	      5.95357036	     -2.90256407	      0.00000000	     -2.63480979	      0.43332343	      1.75738757	      5.48687072	    -10.18792187	     29.90809535	     91.32140671	     88.44512029	      8.77246470	     -9.48243178	     28.62869556	     77.44857048	     85.38519422
      1.18333330	     -2.12828207	     -0.21208032	     -0.76537707	      1.67606440	      0.85384982	     -0.02011338	     -0.20364641	     -1.86597641	     -4.19831814	      0.98696261	      4.87685542	    -12.48330751	      0.00000000	     -1.34792876	     -4.03940019	     -2.92708623	      1.75998469	      5.95319578	     -2.90234102	      0.00000000	     -2.63531464	      0.43340737	      1.75749754	      5.48582206	    -10.18714683	     29.90886772	     91.32111277	     88.44488106	      8.77264152	     -9.48189910	     28.62899841	     77.44865259	     85.38498729
      1.20000000	     -2.11831850	     -0.22309257	     -0.76409406	      1.67585338	      0.85312939	     -0.02036772	     -0.18842381	     -1.85927861	     -4.19713757	      0.97915832	      4.87435202	    -12.48230713	      0.00000000	     -1.36107749	     -4.02560200	     -2.92608889	      1.76742718	      5.95205362	     -2.90123116	      0.00000000	     -2.63619787	      0.43361941	      1.75830216	      5.47740949	    -10.17838827	     29.91677873	     91.31979324	     88.44288967	      8.77553046	     -9.47529655	     28.63234298	     77.45141185	     85.38324731
      1.21666670	     -2.08679188	     -0.23982957	     -0.83140364	      1.67567904	      0.85303369	     -0.02043494	     -0.20018550	     -1.84808915	     -4.18765691	      0.97846914	      4.84152668	    -12.47681611	      0.00000000	     -1.40156573	     -4.03258378	     -2.90507872	      1.79573837	      5.95514975	     -2.89190006	      0.00000000	     -2.64329357	      0.44595103	      1.77693166	      5.35185801	    -10.03281850	     30.05562810	     91.30770207	     88.41622689	      8.82154943	     -9.37043516	     28.68769919	     77.50135015	     85.35902067
      1.23333330	     -2.07326656	     -0.25226201	     -0.81910684	      1.67529668	      0.85349528	     -0.02068556	     -0.19425600	     -1.84990632	     -4.18454197	      0.97370634	      4.84016317	    -12.47622491	      0.00000000	     -1.39906023	     -4.02847337	     -2.90768518	      1.79006249	      5.95805558	     -2.89348416	      0.00000000	     -2.64405917	      0.44485884	      1.78779081	      5.34517014	    -10.02302401	     30.06777814	     91.30702277	     88.41372956	      8.82044054	     -9.37115788	     28.69096378	     77.50342836	     85.35662056
      1.25000000	     -2.04476687	     -0.25640040	     -0.78014793	      1.67525215	      0.85354757	     -0.02066018	     -0.23497505	     -1.84194629	     -4.15979551	      0.96838991	      4.81868261	    -12.47302438	      0.00000000	     -1.42456081	     -4.03519651	     -2.91935828	      1.76967562	      5.99437988	     -2.90892072	      0.00000000	     -2.66673066	      0.46581271	      1.91516746	      5.17986469	     -9.84207357	     30.30358164	     91.29463621	     88.38335543	      8.85083627	     -9.35681015	     28.73802190	     77.55109665	     85.32428253
